<?xml version="1.0" encoding="UTF-8" standalone="no"?>
<!DOCTYPE svg PUBLIC "-//W3C//DTD SVG 1.1//EN"
 "http://www.w3.org/Graphics/SVG/1.1/DTD/svg11.dtd">
<!-- Generated by graphviz version 5.0.0 (20220707.1540)
 -->
<!-- Title: dependencies Pages: 1 -->
<svg width="224pt" height="247pt"
 viewBox="0.00 0.00 224.00 246.80" xmlns="http://www.w3.org/2000/svg" xmlns:xlink="http://www.w3.org/1999/xlink">
<g id="graph0" class="graph" transform="scale(1 1) rotate(0) translate(4 242.8)">
<title>dependencies</title>
<polygon fill="white" stroke="transparent" points="-4,4 -4,-242.8 220,-242.8 220,4 -4,4"/>
<text text-anchor="middle" x="108" y="-8.2" font-family="sans-serif" font-size="14.00">dependencies</text>
<g id="clust1" class="cluster">
<title>cluster_ExchangeRateModuleModule</title>
<polygon fill="none" stroke="black" stroke-dasharray="1,5" points="8,-32.8 8,-230.8 208,-230.8 208,-32.8 8,-32.8"/>
</g>
<g id="clust2" class="cluster">
<title>cluster_ExchangeRateModuleModule_declarations</title>
<polygon fill="none" stroke="black" points="19,-40.8 19,-92.8 197,-92.8 197,-40.8 19,-40.8"/>
</g>
<g id="clust5" class="cluster">
<title>cluster_ExchangeRateModuleModule_exports</title>
<polygon fill="none" stroke="black" points="17,-170.8 17,-222.8 199,-222.8 199,-170.8 17,-170.8"/>
</g>
<!-- ExchangeRateComponent -->
<g id="node1" class="node">
<title>ExchangeRateComponent</title>
<polygon fill="#ffffb3" stroke="black" points="189.18,-84.8 26.82,-84.8 26.82,-48.8 189.18,-48.8 189.18,-84.8"/>
<text text-anchor="middle" x="108" y="-62.6" font-family="Times,serif" font-size="14.00">ExchangeRateComponent</text>
</g>
<!-- ExchangeRateModuleModule -->
<g id="node2" class="node">
<title>ExchangeRateModuleModule</title>
<polygon fill="#8dd3c7" stroke="black" points="199.95,-149.8 196.95,-153.8 175.95,-153.8 172.95,-149.8 16.05,-149.8 16.05,-113.8 199.95,-113.8 199.95,-149.8"/>
<text text-anchor="middle" x="108" y="-127.6" font-family="Times,serif" font-size="14.00">ExchangeRateModuleModule</text>
</g>
<!-- ExchangeRateComponent&#45;&gt;ExchangeRateModuleModule -->
<g id="edge1" class="edge">
<title>ExchangeRateComponent&#45;&gt;ExchangeRateModuleModule</title>
<path fill="none" stroke="black" d="M108,-84.91C108,-84.91 108,-103.79 108,-103.79"/>
<polygon fill="black" stroke="black" points="104.5,-103.79 108,-113.79 111.5,-103.79 104.5,-103.79"/>
</g>
<!-- ExchangeRateComponent  -->
<g id="node3" class="node">
<title>ExchangeRateComponent </title>
<polygon fill="#fb8072" stroke="black" points="190.68,-214.8 25.32,-214.8 25.32,-178.8 190.68,-178.8 190.68,-214.8"/>
<text text-anchor="middle" x="108" y="-192.6" font-family="Times,serif" font-size="14.00">ExchangeRateComponent </text>
</g>
<!-- ExchangeRateModuleModule&#45;&gt;ExchangeRateComponent  -->
<g id="edge2" class="edge">
<title>ExchangeRateModuleModule&#45;&gt;ExchangeRateComponent </title>
<path fill="none" stroke="black" stroke-dasharray="5,2" d="M108,-149.91C108,-149.91 108,-168.79 108,-168.79"/>
<polygon fill="black" stroke="black" points="104.5,-168.79 108,-178.79 111.5,-168.79 104.5,-168.79"/>
</g>
</g>
</svg>
