<?xml version="1.0" encoding="UTF-8" standalone="no"?>
<!DOCTYPE svg PUBLIC "-//W3C//DTD SVG 1.1//EN"
 "http://www.w3.org/Graphics/SVG/1.1/DTD/svg11.dtd">
<!-- Generated by graphviz version 5.0.0 (20220707.1540)
 -->
<!-- Title: dependencies Pages: 1 -->
<svg width="280pt" height="247pt"
 viewBox="0.00 0.00 280.00 246.80" xmlns="http://www.w3.org/2000/svg" xmlns:xlink="http://www.w3.org/1999/xlink">
<g id="graph0" class="graph" transform="scale(1 1) rotate(0) translate(4 242.8)">
<title>dependencies</title>
<polygon fill="white" stroke="transparent" points="-4,4 -4,-242.8 276,-242.8 276,4 -4,4"/>
<text text-anchor="middle" x="136" y="-8.2" font-family="sans-serif" font-size="14.00">dependencies</text>
<g id="clust1" class="cluster">
<title>cluster_TotalBalanceComponentModule</title>
<polygon fill="none" stroke="black" stroke-dasharray="1,5" points="8,-32.8 8,-230.8 264,-230.8 264,-32.8 8,-32.8"/>
</g>
<g id="clust2" class="cluster">
<title>cluster_TotalBalanceComponentModule_declarations</title>
<polygon fill="none" stroke="black" points="17,-40.8 17,-92.8 255,-92.8 255,-40.8 17,-40.8"/>
</g>
<g id="clust5" class="cluster">
<title>cluster_TotalBalanceComponentModule_exports</title>
<polygon fill="none" stroke="black" points="16,-170.8 16,-222.8 256,-222.8 256,-170.8 16,-170.8"/>
</g>
<!-- TotalBalanceComponentComponent -->
<g id="node1" class="node">
<title>TotalBalanceComponentComponent</title>
<polygon fill="#ffffb3" stroke="black" points="246.79,-84.8 25.21,-84.8 25.21,-48.8 246.79,-48.8 246.79,-84.8"/>
<text text-anchor="middle" x="136" y="-62.6" font-family="Times,serif" font-size="14.00">TotalBalanceComponentComponent</text>
</g>
<!-- TotalBalanceComponentModule -->
<g id="node2" class="node">
<title>TotalBalanceComponentModule</title>
<polygon fill="#8dd3c7" stroke="black" points="235.51,-149.8 232.51,-153.8 211.51,-153.8 208.51,-149.8 36.49,-149.8 36.49,-113.8 235.51,-113.8 235.51,-149.8"/>
<text text-anchor="middle" x="136" y="-127.6" font-family="Times,serif" font-size="14.00">TotalBalanceComponentModule</text>
</g>
<!-- TotalBalanceComponentComponent&#45;&gt;TotalBalanceComponentModule -->
<g id="edge1" class="edge">
<title>TotalBalanceComponentComponent&#45;&gt;TotalBalanceComponentModule</title>
<path fill="none" stroke="black" d="M136,-84.91C136,-84.91 136,-103.79 136,-103.79"/>
<polygon fill="black" stroke="black" points="132.5,-103.79 136,-113.79 139.5,-103.79 132.5,-103.79"/>
</g>
<!-- TotalBalanceComponentComponent  -->
<g id="node3" class="node">
<title>TotalBalanceComponentComponent </title>
<polygon fill="#fb8072" stroke="black" points="248.29,-214.8 23.71,-214.8 23.71,-178.8 248.29,-178.8 248.29,-214.8"/>
<text text-anchor="middle" x="136" y="-192.6" font-family="Times,serif" font-size="14.00">TotalBalanceComponentComponent </text>
</g>
<!-- TotalBalanceComponentModule&#45;&gt;TotalBalanceComponentComponent  -->
<g id="edge2" class="edge">
<title>TotalBalanceComponentModule&#45;&gt;TotalBalanceComponentComponent </title>
<path fill="none" stroke="black" stroke-dasharray="5,2" d="M136,-149.91C136,-149.91 136,-168.79 136,-168.79"/>
<polygon fill="black" stroke="black" points="132.5,-168.79 136,-178.79 139.5,-168.79 132.5,-168.79"/>
</g>
</g>
</svg>
