<?xml version="1.0" encoding="UTF-8" standalone="no"?>
<!DOCTYPE svg PUBLIC "-//W3C//DTD SVG 1.1//EN"
 "http://www.w3.org/Graphics/SVG/1.1/DTD/svg11.dtd">
<!-- Generated by graphviz version 5.0.0 (20220707.1540)
 -->
<!-- Title: dependencies Pages: 1 -->
<svg width="162pt" height="247pt"
 viewBox="0.00 0.00 162.00 246.80" xmlns="http://www.w3.org/2000/svg" xmlns:xlink="http://www.w3.org/1999/xlink">
<g id="graph0" class="graph" transform="scale(1 1) rotate(0) translate(4 242.8)">
<title>dependencies</title>
<polygon fill="white" stroke="transparent" points="-4,4 -4,-242.8 158,-242.8 158,4 -4,4"/>
<text text-anchor="middle" x="77" y="-8.2" font-family="sans-serif" font-size="14.00">dependencies</text>
<g id="clust1" class="cluster">
<title>cluster_VatModule</title>
<polygon fill="none" stroke="black" stroke-dasharray="1,5" points="8,-32.8 8,-230.8 146,-230.8 146,-32.8 8,-32.8"/>
</g>
<g id="clust2" class="cluster">
<title>cluster_VatModule_declarations</title>
<polygon fill="none" stroke="black" points="18,-40.8 18,-92.8 136,-92.8 136,-40.8 18,-40.8"/>
</g>
<g id="clust5" class="cluster">
<title>cluster_VatModule_exports</title>
<polygon fill="none" stroke="black" points="16,-170.8 16,-222.8 138,-222.8 138,-170.8 16,-170.8"/>
</g>
<!-- VatComponent -->
<g id="node1" class="node">
<title>VatComponent</title>
<polygon fill="#ffffb3" stroke="black" points="127.55,-84.8 26.45,-84.8 26.45,-48.8 127.55,-48.8 127.55,-84.8"/>
<text text-anchor="middle" x="77" y="-62.6" font-family="Times,serif" font-size="14.00">VatComponent</text>
</g>
<!-- VatModule -->
<g id="node2" class="node">
<title>VatModule</title>
<polygon fill="#8dd3c7" stroke="black" points="116.77,-149.8 113.77,-153.8 92.77,-153.8 89.77,-149.8 37.23,-149.8 37.23,-113.8 116.77,-113.8 116.77,-149.8"/>
<text text-anchor="middle" x="77" y="-127.6" font-family="Times,serif" font-size="14.00">VatModule</text>
</g>
<!-- VatComponent&#45;&gt;VatModule -->
<g id="edge1" class="edge">
<title>VatComponent&#45;&gt;VatModule</title>
<path fill="none" stroke="black" d="M77,-84.91C77,-84.91 77,-103.79 77,-103.79"/>
<polygon fill="black" stroke="black" points="73.5,-103.79 77,-113.79 80.5,-103.79 73.5,-103.79"/>
</g>
<!-- VatComponent  -->
<g id="node3" class="node">
<title>VatComponent </title>
<polygon fill="#fb8072" stroke="black" points="129.54,-214.8 24.46,-214.8 24.46,-178.8 129.54,-178.8 129.54,-214.8"/>
<text text-anchor="middle" x="77" y="-192.6" font-family="Times,serif" font-size="14.00">VatComponent </text>
</g>
<!-- VatModule&#45;&gt;VatComponent  -->
<g id="edge2" class="edge">
<title>VatModule&#45;&gt;VatComponent </title>
<path fill="none" stroke="black" stroke-dasharray="5,2" d="M77,-149.91C77,-149.91 77,-168.79 77,-168.79"/>
<polygon fill="black" stroke="black" points="73.5,-168.79 77,-178.79 80.5,-168.79 73.5,-168.79"/>
</g>
</g>
</svg>
