<?xml version="1.0" encoding="UTF-8" standalone="no"?>
<!DOCTYPE svg PUBLIC "-//W3C//DTD SVG 1.1//EN"
 "http://www.w3.org/Graphics/SVG/1.1/DTD/svg11.dtd">
<!-- Generated by graphviz version 5.0.0 (20220707.1540)
 -->
<!-- Title: dependencies Pages: 1 -->
<svg width="872pt" height="247pt"
 viewBox="0.00 0.00 872.00 246.80" xmlns="http://www.w3.org/2000/svg" xmlns:xlink="http://www.w3.org/1999/xlink">
<g id="graph0" class="graph" transform="scale(1 1) rotate(0) translate(4 242.8)">
<title>dependencies</title>
<polygon fill="white" stroke="transparent" points="-4,4 -4,-242.8 868,-242.8 868,4 -4,4"/>
<text text-anchor="middle" x="432" y="-8.2" font-family="sans-serif" font-size="14.00">dependencies</text>
<g id="clust1" class="cluster">
<title>cluster_AccountsDropdownModule</title>
<polygon fill="none" stroke="black" stroke-dasharray="1,5" points="8,-32.8 8,-230.8 238,-230.8 238,-32.8 8,-32.8"/>
</g>
<g id="clust2" class="cluster">
<title>cluster_AccountsDropdownModule_declarations</title>
<polygon fill="none" stroke="black" points="18,-40.8 18,-92.8 228,-92.8 228,-40.8 18,-40.8"/>
</g>
<g id="clust5" class="cluster">
<title>cluster_AccountsDropdownModule_exports</title>
<polygon fill="none" stroke="black" points="16,-170.8 16,-222.8 230,-222.8 230,-170.8 16,-170.8"/>
</g>
<g id="clust8" class="cluster">
<title>cluster_ExchangeRateModuleModule</title>
<polygon fill="none" stroke="black" stroke-dasharray="1,5" points="246,-32.8 246,-230.8 446,-230.8 446,-32.8 246,-32.8"/>
</g>
<g id="clust9" class="cluster">
<title>cluster_ExchangeRateModuleModule_declarations</title>
<polygon fill="none" stroke="black" points="257,-40.8 257,-92.8 435,-92.8 435,-40.8 257,-40.8"/>
</g>
<g id="clust12" class="cluster">
<title>cluster_ExchangeRateModuleModule_exports</title>
<polygon fill="none" stroke="black" points="255,-170.8 255,-222.8 437,-222.8 437,-170.8 255,-170.8"/>
</g>
<g id="clust21" class="cluster">
<title>cluster_TotalBalanceComponentModule</title>
<polygon fill="none" stroke="black" stroke-dasharray="1,5" points="454,-32.8 454,-230.8 710,-230.8 710,-32.8 454,-32.8"/>
</g>
<g id="clust22" class="cluster">
<title>cluster_TotalBalanceComponentModule_declarations</title>
<polygon fill="none" stroke="black" points="463,-40.8 463,-92.8 701,-92.8 701,-40.8 463,-40.8"/>
</g>
<g id="clust25" class="cluster">
<title>cluster_TotalBalanceComponentModule_exports</title>
<polygon fill="none" stroke="black" points="462,-170.8 462,-222.8 702,-222.8 702,-170.8 462,-170.8"/>
</g>
<g id="clust28" class="cluster">
<title>cluster_VatModule</title>
<polygon fill="none" stroke="black" stroke-dasharray="1,5" points="718,-32.8 718,-230.8 856,-230.8 856,-32.8 718,-32.8"/>
</g>
<g id="clust29" class="cluster">
<title>cluster_VatModule_declarations</title>
<polygon fill="none" stroke="black" points="728,-40.8 728,-92.8 846,-92.8 846,-40.8 728,-40.8"/>
</g>
<g id="clust32" class="cluster">
<title>cluster_VatModule_exports</title>
<polygon fill="none" stroke="black" points="726,-170.8 726,-222.8 848,-222.8 848,-170.8 726,-170.8"/>
</g>
<!-- AccountsDropdownComponent -->
<g id="node1" class="node">
<title>AccountsDropdownComponent</title>
<polygon fill="#ffffb3" stroke="black" points="220.09,-84.8 25.91,-84.8 25.91,-48.8 220.09,-48.8 220.09,-84.8"/>
<text text-anchor="middle" x="123" y="-62.6" font-family="Times,serif" font-size="14.00">AccountsDropdownComponent</text>
</g>
<!-- AccountsDropdownModule -->
<g id="node2" class="node">
<title>AccountsDropdownModule</title>
<polygon fill="#8dd3c7" stroke="black" points="209.31,-149.8 206.31,-153.8 185.31,-153.8 182.31,-149.8 36.69,-149.8 36.69,-113.8 209.31,-113.8 209.31,-149.8"/>
<text text-anchor="middle" x="123" y="-127.6" font-family="Times,serif" font-size="14.00">AccountsDropdownModule</text>
</g>
<!-- AccountsDropdownComponent&#45;&gt;AccountsDropdownModule -->
<g id="edge1" class="edge">
<title>AccountsDropdownComponent&#45;&gt;AccountsDropdownModule</title>
<path fill="none" stroke="black" d="M123,-84.91C123,-84.91 123,-103.79 123,-103.79"/>
<polygon fill="black" stroke="black" points="119.5,-103.79 123,-113.79 126.5,-103.79 119.5,-103.79"/>
</g>
<!-- AccountsDropdownComponent  -->
<g id="node3" class="node">
<title>AccountsDropdownComponent </title>
<polygon fill="#fb8072" stroke="black" points="221.59,-214.8 24.41,-214.8 24.41,-178.8 221.59,-178.8 221.59,-214.8"/>
<text text-anchor="middle" x="123" y="-192.6" font-family="Times,serif" font-size="14.00">AccountsDropdownComponent </text>
</g>
<!-- AccountsDropdownModule&#45;&gt;AccountsDropdownComponent  -->
<g id="edge2" class="edge">
<title>AccountsDropdownModule&#45;&gt;AccountsDropdownComponent </title>
<path fill="none" stroke="black" stroke-dasharray="5,2" d="M123,-149.91C123,-149.91 123,-168.79 123,-168.79"/>
<polygon fill="black" stroke="black" points="119.5,-168.79 123,-178.79 126.5,-168.79 119.5,-168.79"/>
</g>
<!-- ExchangeRateComponent -->
<g id="node4" class="node">
<title>ExchangeRateComponent</title>
<polygon fill="#ffffb3" stroke="black" points="427.18,-84.8 264.82,-84.8 264.82,-48.8 427.18,-48.8 427.18,-84.8"/>
<text text-anchor="middle" x="346" y="-62.6" font-family="Times,serif" font-size="14.00">ExchangeRateComponent</text>
</g>
<!-- ExchangeRateModuleModule -->
<g id="node5" class="node">
<title>ExchangeRateModuleModule</title>
<polygon fill="#8dd3c7" stroke="black" points="437.95,-149.8 434.95,-153.8 413.95,-153.8 410.95,-149.8 254.05,-149.8 254.05,-113.8 437.95,-113.8 437.95,-149.8"/>
<text text-anchor="middle" x="346" y="-127.6" font-family="Times,serif" font-size="14.00">ExchangeRateModuleModule</text>
</g>
<!-- ExchangeRateComponent&#45;&gt;ExchangeRateModuleModule -->
<g id="edge3" class="edge">
<title>ExchangeRateComponent&#45;&gt;ExchangeRateModuleModule</title>
<path fill="none" stroke="black" d="M346,-84.91C346,-84.91 346,-103.79 346,-103.79"/>
<polygon fill="black" stroke="black" points="342.5,-103.79 346,-113.79 349.5,-103.79 342.5,-103.79"/>
</g>
<!-- ExchangeRateComponent  -->
<g id="node6" class="node">
<title>ExchangeRateComponent </title>
<polygon fill="#fb8072" stroke="black" points="428.68,-214.8 263.32,-214.8 263.32,-178.8 428.68,-178.8 428.68,-214.8"/>
<text text-anchor="middle" x="346" y="-192.6" font-family="Times,serif" font-size="14.00">ExchangeRateComponent </text>
</g>
<!-- ExchangeRateModuleModule&#45;&gt;ExchangeRateComponent  -->
<g id="edge4" class="edge">
<title>ExchangeRateModuleModule&#45;&gt;ExchangeRateComponent </title>
<path fill="none" stroke="black" stroke-dasharray="5,2" d="M346,-149.91C346,-149.91 346,-168.79 346,-168.79"/>
<polygon fill="black" stroke="black" points="342.5,-168.79 346,-178.79 349.5,-168.79 342.5,-168.79"/>
</g>
<!-- TotalBalanceComponentComponent -->
<g id="node7" class="node">
<title>TotalBalanceComponentComponent</title>
<polygon fill="#ffffb3" stroke="black" points="692.79,-84.8 471.21,-84.8 471.21,-48.8 692.79,-48.8 692.79,-84.8"/>
<text text-anchor="middle" x="582" y="-62.6" font-family="Times,serif" font-size="14.00">TotalBalanceComponentComponent</text>
</g>
<!-- TotalBalanceComponentModule -->
<g id="node8" class="node">
<title>TotalBalanceComponentModule</title>
<polygon fill="#8dd3c7" stroke="black" points="681.51,-149.8 678.51,-153.8 657.51,-153.8 654.51,-149.8 482.49,-149.8 482.49,-113.8 681.51,-113.8 681.51,-149.8"/>
<text text-anchor="middle" x="582" y="-127.6" font-family="Times,serif" font-size="14.00">TotalBalanceComponentModule</text>
</g>
<!-- TotalBalanceComponentComponent&#45;&gt;TotalBalanceComponentModule -->
<g id="edge5" class="edge">
<title>TotalBalanceComponentComponent&#45;&gt;TotalBalanceComponentModule</title>
<path fill="none" stroke="black" d="M582,-84.91C582,-84.91 582,-103.79 582,-103.79"/>
<polygon fill="black" stroke="black" points="578.5,-103.79 582,-113.79 585.5,-103.79 578.5,-103.79"/>
</g>
<!-- TotalBalanceComponentComponent  -->
<g id="node9" class="node">
<title>TotalBalanceComponentComponent </title>
<polygon fill="#fb8072" stroke="black" points="694.29,-214.8 469.71,-214.8 469.71,-178.8 694.29,-178.8 694.29,-214.8"/>
<text text-anchor="middle" x="582" y="-192.6" font-family="Times,serif" font-size="14.00">TotalBalanceComponentComponent </text>
</g>
<!-- TotalBalanceComponentModule&#45;&gt;TotalBalanceComponentComponent  -->
<g id="edge6" class="edge">
<title>TotalBalanceComponentModule&#45;&gt;TotalBalanceComponentComponent </title>
<path fill="none" stroke="black" stroke-dasharray="5,2" d="M582,-149.91C582,-149.91 582,-168.79 582,-168.79"/>
<polygon fill="black" stroke="black" points="578.5,-168.79 582,-178.79 585.5,-168.79 578.5,-168.79"/>
</g>
<!-- VatComponent -->
<g id="node10" class="node">
<title>VatComponent</title>
<polygon fill="#ffffb3" stroke="black" points="837.55,-84.8 736.45,-84.8 736.45,-48.8 837.55,-48.8 837.55,-84.8"/>
<text text-anchor="middle" x="787" y="-62.6" font-family="Times,serif" font-size="14.00">VatComponent</text>
</g>
<!-- VatModule -->
<g id="node11" class="node">
<title>VatModule</title>
<polygon fill="#8dd3c7" stroke="black" points="826.77,-149.8 823.77,-153.8 802.77,-153.8 799.77,-149.8 747.23,-149.8 747.23,-113.8 826.77,-113.8 826.77,-149.8"/>
<text text-anchor="middle" x="787" y="-127.6" font-family="Times,serif" font-size="14.00">VatModule</text>
</g>
<!-- VatComponent&#45;&gt;VatModule -->
<g id="edge7" class="edge">
<title>VatComponent&#45;&gt;VatModule</title>
<path fill="none" stroke="black" d="M787,-84.91C787,-84.91 787,-103.79 787,-103.79"/>
<polygon fill="black" stroke="black" points="783.5,-103.79 787,-113.79 790.5,-103.79 783.5,-103.79"/>
</g>
<!-- VatComponent  -->
<g id="node12" class="node">
<title>VatComponent </title>
<polygon fill="#fb8072" stroke="black" points="839.54,-214.8 734.46,-214.8 734.46,-178.8 839.54,-178.8 839.54,-214.8"/>
<text text-anchor="middle" x="787" y="-192.6" font-family="Times,serif" font-size="14.00">VatComponent </text>
</g>
<!-- VatModule&#45;&gt;VatComponent  -->
<g id="edge8" class="edge">
<title>VatModule&#45;&gt;VatComponent </title>
<path fill="none" stroke="black" stroke-dasharray="5,2" d="M787,-149.91C787,-149.91 787,-168.79 787,-168.79"/>
<polygon fill="black" stroke="black" points="783.5,-168.79 787,-178.79 790.5,-168.79 783.5,-168.79"/>
</g>
</g>
</svg>
